<svg width="12" height="12" viewBox="0 0 12 12" fill="none" xmlns="http://www.w3.org/2000/svg">
<path d="M7.02877 2.8002C7.02877 2.65875 7.06489 2.52309 7.12919 2.42307C7.19348 2.32305 7.28069 2.26686 7.37162 2.26686H10.1145C10.2054 2.26686 10.2926 2.32305 10.3569 2.42307C10.4212 2.52309 10.4573 2.65875 10.4573 2.8002C10.4573 2.94164 10.4212 3.0773 10.3569 3.17732C10.2926 3.27734 10.2054 3.33353 10.1145 3.33353H7.37162C7.28069 3.33353 7.19348 3.27734 7.12919 3.17732C7.06489 3.0773 7.02877 2.94164 7.02877 2.8002ZM6.0002 8.0002C6.0002 8.7428 5.81055 9.45499 5.47299 9.98009C5.13542 10.5052 4.67758 10.8002 4.2002 10.8002H1.54305C1.45212 10.8002 1.36491 10.744 1.30062 10.644C1.23632 10.544 1.2002 10.4083 1.2002 10.2669V1.73353C1.2002 1.59208 1.23632 1.45642 1.30062 1.35641C1.36491 1.25639 1.45212 1.2002 1.54305 1.2002H4.02877C4.35668 1.20074 4.67686 1.35526 4.94739 1.64353C5.21793 1.9318 5.42621 2.3404 5.545 2.81585C5.66378 3.2913 5.68753 3.81146 5.61314 4.30825C5.53875 4.80505 5.36968 5.25534 5.12805 5.60019C5.39417 5.84922 5.61434 6.2011 5.76717 6.62165C5.91999 7.0422 6.00027 7.51711 6.0002 8.0002ZM1.88591 5.2002H4.02877C4.27883 5.2002 4.51865 5.04567 4.69547 4.77062C4.87229 4.49557 4.97162 4.12251 4.97162 3.73353C4.97162 3.34454 4.87229 2.97149 4.69547 2.69644C4.51865 2.42139 4.27883 2.26686 4.02877 2.26686H1.88591V5.2002ZM5.31448 8.0002C5.31448 7.77257 5.28566 7.54717 5.22966 7.33688C5.17366 7.12658 5.09158 6.9355 4.98811 6.77454C4.88464 6.61359 4.76181 6.48591 4.62661 6.3988C4.49142 6.3117 4.34653 6.26686 4.2002 6.26686H1.88591V9.73353H4.2002C4.34653 9.73353 4.49142 9.68869 4.62661 9.60159C4.76181 9.51448 4.88464 9.3868 4.98811 9.22585C5.09158 9.06489 5.17366 8.87381 5.22966 8.66351C5.28566 8.45322 5.31448 8.22782 5.31448 8.0002ZM10.8002 7.60019C10.8002 7.74164 10.7641 7.8773 10.6998 7.97732C10.6355 8.07734 10.5483 8.13353 10.4573 8.13353H7.41448C7.47902 8.52269 7.61292 8.87558 7.80076 9.15154C7.98859 9.4275 8.22272 9.61531 8.47617 9.69334C8.72962 9.77137 8.99208 9.73644 9.23333 9.59258C9.47458 9.44872 9.6848 9.20178 9.83977 8.88019C9.86681 8.82416 9.90068 8.77697 9.93945 8.7413C9.97822 8.70563 10.0211 8.68219 10.0657 8.67232C10.1103 8.66245 10.1557 8.66633 10.1993 8.68375C10.243 8.70118 10.284 8.73179 10.32 8.77386C10.356 8.81593 10.3863 8.86862 10.4093 8.92893C10.4322 8.98923 10.4473 9.05597 10.4536 9.12534C10.46 9.1947 10.4575 9.26534 10.4463 9.3332C10.4351 9.40106 10.4154 9.46483 10.3883 9.52086C10.0951 10.1285 9.6725 10.5541 9.19604 10.7214C8.71958 10.8887 8.2204 10.7869 7.78781 10.4341C7.35522 10.0812 7.01745 9.50049 6.83493 8.79573C6.65241 8.09097 6.63705 7.30817 6.79161 6.58741C6.94617 5.86665 7.26055 5.25495 7.67851 4.86176C8.09646 4.46857 8.59072 4.31955 9.07285 4.44136C9.55498 4.56318 9.99351 4.94787 10.31 5.52661C10.6265 6.10536 10.8002 6.84039 10.8002 7.60019ZM10.0716 7.06686C9.99609 6.60797 9.82453 6.20124 9.58397 5.91079C9.34342 5.62033 9.04757 5.46268 8.74305 5.46268C8.43854 5.46268 8.14268 5.62033 7.90213 5.91079C7.66158 6.20124 7.49001 6.60797 7.41448 7.06686H10.0716Z" fill="white"/>
</svg>
