<svg width="18" height="19" viewBox="0 0 18 19" fill="none" xmlns="http://www.w3.org/2000/svg">
<path d="M16 9.94995C16 7.99995 15.3207 6.34595 13.962 4.98795C12.6033 3.62995 10.9493 2.95062 9 2.94995V0.949951C10.25 0.949951 11.421 1.18762 12.513 1.66295C13.605 2.13828 14.555 2.77995 15.363 3.58795C16.171 4.39595 16.8127 5.34595 17.288 6.43795C17.7633 7.52995 18.0007 8.70062 18 9.94995H16ZM12 9.94995C12 9.11662 11.7083 8.40828 11.125 7.82495C10.5417 7.24162 9.83333 6.94995 9 6.94995V4.94995C10.3833 4.94995 11.5627 5.43762 12.538 6.41295C13.5133 7.38828 14.0007 8.56728 14 9.94995H12ZM16.95 19C14.8 19 12.704 18.5206 10.662 17.562C8.62 16.6033 6.81167 15.3366 5.237 13.762C3.66233 12.1873 2.39567 10.379 1.437 8.33695C0.478334 6.29495 -0.000665972 4.19928 6.94927e-07 2.04995C6.94927e-07 1.74995 0.100001 1.49995 0.300001 1.29995C0.500001 1.09995 0.750001 0.999951 1.05 0.999951H5.1C5.33333 0.999951 5.54167 1.07495 5.725 1.22495C5.90833 1.37495 6.01667 1.56662 6.05 1.79995L6.7 5.29995C6.73333 5.53328 6.729 5.74595 6.687 5.93795C6.645 6.12995 6.54933 6.30062 6.4 6.44995L4 8.89995C4.7 10.1 5.575 11.225 6.625 12.275C7.675 13.325 8.83333 14.2333 10.1 15L12.45 12.65C12.6 12.5 12.796 12.3876 13.038 12.313C13.28 12.2383 13.5173 12.2173 13.75 12.25L17.2 12.95C17.4333 13 17.625 13.1126 17.775 13.288C17.925 13.4633 18 13.6673 18 13.9V17.95C18 18.25 17.9 18.5 17.7 18.7C17.5 18.9 17.25 19 16.95 19Z" fill="white"/>
</svg>
