<svg width="30" height="30" viewBox="0 0 25 25" fill="none" xmlns="http://www.w3.org/2000/svg">
<path d="M9.30847 2.60645C8.92038 1.63621 7.98072 1 6.93576 1H3.42099C2.08391 1 1 2.08368 1 3.42079C1 14.7862 10.2135 24 21.5787 24C22.9157 24 23.9994 22.9159 23.9994 21.5789L24 18.0634C24 17.0184 23.3639 16.0789 22.3938 15.6907L19.025 14.3437C18.1536 13.9951 17.1613 14.152 16.4401 14.753L15.5707 15.4781C14.5554 16.3243 13.0614 16.2569 12.1268 15.3224L9.67871 12.872C8.74413 11.9373 8.67505 10.4444 9.5212 9.42909L10.2461 8.55972C10.847 7.8386 11.0054 6.84604 10.6568 5.9745L9.30847 2.60645Z" stroke="white" stroke-width="2" stroke-linecap="round" stroke-linejoin="round"/>
</svg>
