<svg width="20" height="20" viewBox="0 0 18 18" fill="none" xmlns="http://www.w3.org/2000/svg">
<path d="M6.7798 2.11753C6.50983 1.44258 5.85615 1 5.12923 1H2.68417C1.75402 1 1 1.75387 1 2.68403C1 10.5904 7.40942 17 15.3156 17C16.2457 17 16.9996 16.2459 16.9996 15.3157L17 12.8702C17 12.1432 16.5575 11.4897 15.8826 11.2196L13.5391 10.2826C12.9329 10.0401 12.2426 10.1492 11.7409 10.5673L11.1362 11.0717C10.4299 11.6604 9.39052 11.6135 8.74041 10.9634L7.03736 9.25876C6.38722 8.60853 6.33917 7.57004 6.92779 6.86372L7.43209 6.25893C7.85012 5.75729 7.96025 5.06681 7.71777 4.46052L6.7798 2.11753Z" stroke="white" stroke-linecap="round" stroke-linejoin="round"/>
</svg>
