<svg width="12" height="12" viewBox="0 0 12 12" fill="none" xmlns="http://www.w3.org/2000/svg">
<path d="M11.1118 0.00111777C10.9567 0.00914831 10.8106 0.059339 10.6808 0.115553H10.679C10.5473 0.173774 9.92158 0.466889 8.97125 0.910576C8.02092 1.35627 6.78747 1.93447 5.56304 2.50865C3.11778 3.65501 0.713997 4.7833 0.713997 4.7833L0.742849 4.77125C0.742849 4.77125 0.576947 4.83148 0.403831 4.96399C0.31547 5.02823 0.218092 5.11657 0.133338 5.25509C0.0485837 5.39362 -0.0199415 5.60643 0.0053048 5.82526C0.0467805 6.19667 0.263175 6.41952 0.418257 6.54199C0.575144 6.66646 0.724817 6.72468 0.724817 6.72468H0.728423L2.98253 7.56989C3.08352 7.93127 3.66958 10.0754 3.81024 10.5693C3.89319 10.8644 3.97434 11.0491 4.07532 11.1897C4.12401 11.2619 4.18172 11.3222 4.25024 11.3703C4.27729 11.3884 4.30614 11.4025 4.335 11.4145C4.34401 11.4205 4.35303 11.4225 4.36385 11.4246L4.34041 11.4185C4.34762 11.4205 4.35303 11.4266 4.35844 11.4286C4.37647 11.4346 4.3891 11.4366 4.41254 11.4406C4.76959 11.5611 5.05631 11.3141 5.05631 11.3141L5.07254 11.3001L6.40337 9.95095L8.63404 11.8562L8.68453 11.8803C9.14978 12.1071 9.62043 11.9807 9.86929 11.7578C10.1199 11.533 10.2173 11.2459 10.2173 11.2459L10.2336 11.1997L11.9575 1.36832C12.0062 1.12539 12.0188 0.89853 11.9647 0.67769C11.9106 0.456851 11.7718 0.250064 11.604 0.139644C11.4345 0.0272169 11.2668 -0.00691276 11.1118 0.00111777ZM11.0649 1.05513C11.0631 1.08725 11.0685 1.08323 11.0559 1.14547V1.15149L9.34814 10.8805C9.34092 10.8945 9.3283 10.9247 9.29404 10.9548C9.25797 10.9869 9.22912 11.007 9.07945 10.9407L6.35107 8.61186L4.70287 10.2842L5.0491 7.82286C5.0491 7.82286 9.32289 3.388 9.50683 3.19727C9.69076 3.00654 9.62945 2.96639 9.62945 2.96639C9.64207 2.73351 9.35174 2.89813 9.35174 2.89813L3.7309 6.77487L3.72909 6.76483L1.03498 5.75499V5.75299C1.03318 5.75299 1.02957 5.75098 1.02777 5.75098C1.02957 5.75098 1.0422 5.74496 1.0422 5.74496L1.05662 5.73693L1.07105 5.7309C1.07105 5.7309 3.47663 4.60261 5.92189 3.45625C7.14632 2.88207 8.37977 2.30387 9.3283 1.85818C10.2768 1.41449 10.9783 1.08925 11.018 1.07119C11.0559 1.05513 11.0378 1.05513 11.0649 1.05513Z" fill="white"/>
</svg>
