<svg width="16" height="16" viewBox="0 0 16 16" fill="none" xmlns="http://www.w3.org/2000/svg">
<path d="M13.0351 1.99778C12.8745 2.00946 12.717 2.04711 12.5686 2.10928H12.5666C12.4241 2.16578 11.7466 2.45078 10.7166 2.88278L7.02556 4.43728C4.37706 5.55228 1.77356 6.65028 1.77356 6.65028L1.80456 6.63828C1.80456 6.63828 1.62506 6.69728 1.43756 6.82578C1.32172 6.89949 1.22205 6.99593 1.14456 7.10928C1.05256 7.24428 0.978559 7.45078 1.00606 7.66428C1.05106 8.02528 1.28506 8.24178 1.45306 8.36128C1.62306 8.48228 1.78506 8.53878 1.78506 8.53878H1.78906L4.23056 9.36128C4.34006 9.71278 4.97456 11.7988 5.12706 12.2793C5.21706 12.5663 5.30456 12.7458 5.41406 12.8828C5.46706 12.9528 5.52906 13.0113 5.60356 13.0583C5.64229 13.0808 5.68358 13.0986 5.72656 13.1113L5.70156 13.1053C5.70906 13.1073 5.71506 13.1133 5.72056 13.1153C5.74056 13.1208 5.75406 13.1228 5.77956 13.1268C6.16606 13.2438 6.47656 13.0038 6.47656 13.0038L6.49406 12.9898L7.93556 11.6773L10.3516 13.5308L10.4066 13.5543C10.9101 13.7753 11.4201 13.6523 11.6896 13.4353C11.9611 13.2168 12.0666 12.9373 12.0666 12.9373L12.0841 12.8923L13.9511 3.32778C14.0041 3.09178 14.0176 2.87078 13.9591 2.65628C13.8987 2.43919 13.7594 2.25248 13.5686 2.13278C13.4083 2.03533 13.2224 1.9883 13.0351 1.99778ZM12.9846 3.02278C12.9826 3.05428 12.9886 3.05078 12.9746 3.11128V3.11678L11.1251 12.5818C11.1171 12.5953 11.1036 12.6248 11.0666 12.6543C11.0276 12.6853 10.9966 12.7048 10.8341 12.6403L7.87906 10.3748L6.09406 12.0018L6.46906 9.60678L11.2971 5.10678C11.4961 4.92178 11.4296 4.88278 11.4296 4.88278C11.4436 4.65578 11.1291 4.81628 11.1291 4.81628L5.04106 8.58778L5.03906 8.57778L2.12106 7.59528V7.59328L2.11356 7.59178C2.11867 7.59008 2.12368 7.58808 2.12856 7.58578L2.14456 7.57778L2.16006 7.57228C2.16006 7.57228 4.76556 6.47428 7.41406 5.35928C8.74006 4.80078 10.0761 4.23828 11.1036 3.80428C11.7129 3.54778 12.3229 3.29278 12.9336 3.03928C12.9746 3.02328 12.9551 3.02278 12.9846 3.02278Z" fill="white"/>
</svg>
