<svg width="16" height="16" viewBox="0 0 16 16" fill="none" xmlns="http://www.w3.org/2000/svg">
<path d="M5.3099 4.13483C5.186 4.1168 5.05966 4.14173 4.9519 4.2055H4.94257C4.69257 4.35216 4.46723 4.53683 4.27523 4.75416C4.11523 4.93883 4.02857 5.1255 4.0059 5.3055C3.99257 5.41216 4.0019 5.52016 4.03323 5.62216L4.04523 5.62883C4.22523 6.1575 4.4599 6.66616 4.74657 7.14483C5.1162 7.81716 5.57107 8.43896 6.0999 8.99483L6.1159 9.0175L6.14123 9.03616L6.15657 9.05416L6.17523 9.07016C6.73305 9.60059 7.35631 10.0576 8.0299 10.4302C8.7999 10.8495 9.26723 11.0475 9.5479 11.1302V11.1342C9.6299 11.1595 9.70457 11.1708 9.7799 11.1708C10.0189 11.1532 10.2452 11.056 10.4226 10.8948C10.6392 10.7028 10.8226 10.4768 10.9652 10.2255V10.2208C11.0992 9.9675 11.0539 9.72883 10.8606 9.56683C10.4722 9.22752 10.0523 8.92615 9.60657 8.66683C9.3079 8.50483 9.00457 8.60283 8.8819 8.76683L8.6199 9.0975C8.48523 9.2615 8.24123 9.23883 8.24123 9.23883L8.23457 9.24283C6.4139 8.77816 5.9279 6.93483 5.9279 6.93483C5.9279 6.93483 5.90523 6.68416 6.0739 6.55616L6.4019 6.29216C6.55923 6.16416 6.66857 5.8615 6.4999 5.56283C6.2423 5.11667 5.94153 4.69688 5.6019 4.3095C5.52782 4.21833 5.42394 4.15623 5.30857 4.13416L5.3099 4.13483ZM8.38657 3.3335C8.29816 3.3335 8.21338 3.36862 8.15086 3.43113C8.08835 3.49364 8.05323 3.57842 8.05323 3.66683C8.05323 3.75523 8.08835 3.84002 8.15086 3.90253C8.21338 3.96504 8.29816 4.00016 8.38657 4.00016C9.22923 4.00016 9.92923 4.2755 10.4832 4.8035C10.7679 5.09216 10.9899 5.43416 11.1352 5.80883C11.2812 6.18416 11.3479 6.58483 11.3306 6.98616C11.3269 7.07457 11.3584 7.16083 11.4183 7.22597C11.4782 7.2911 11.5615 7.32978 11.6499 7.3335C11.7383 7.33721 11.8246 7.30565 11.8897 7.24576C11.9548 7.18588 11.9935 7.10257 11.9972 7.01416C12.0179 6.52049 11.936 6.02789 11.7566 5.5675C11.5764 5.10492 11.3032 4.68424 10.9539 4.3315L10.9472 4.32483C10.2599 3.66816 9.39057 3.3335 8.38657 3.3335Z" fill="white"/>
<path d="M8.36336 4.42938C8.27496 4.42938 8.19017 4.4645 8.12766 4.52701C8.06515 4.58952 8.03003 4.67431 8.03003 4.76271C8.03003 4.85112 8.06515 4.9359 8.12766 4.99841C8.19017 5.06093 8.27496 5.09604 8.36336 5.09604H8.3747C8.9827 5.13938 9.42536 5.34204 9.73536 5.67471C10.0534 6.01738 10.218 6.44338 10.2054 6.97004C10.2033 7.05845 10.2365 7.14404 10.2976 7.20799C10.3586 7.27194 10.4426 7.30901 10.531 7.31104C10.6194 7.31308 10.705 7.27991 10.769 7.21883C10.8329 7.15776 10.87 7.07378 10.872 6.98538C10.888 6.29404 10.6654 5.69738 10.224 5.22138V5.22004C9.7727 4.73604 9.15336 4.48004 8.40803 4.43004L8.3967 4.42871L8.36336 4.42938Z" fill="white"/>
<path d="M8.35067 5.54621C8.30606 5.54228 8.26111 5.54737 8.21852 5.56119C8.17592 5.575 8.13654 5.59726 8.10274 5.62664C8.06894 5.65601 8.0414 5.69189 8.02177 5.73214C8.00214 5.77239 7.99082 5.81619 7.98849 5.86091C7.98616 5.90563 7.99286 5.95037 8.0082 5.99244C8.02354 6.03451 8.0472 6.07306 8.07777 6.10579C8.10834 6.13852 8.14519 6.16475 8.18612 6.18292C8.22705 6.20109 8.27123 6.21082 8.316 6.21155C8.59467 6.22621 8.77267 6.31021 8.88467 6.42288C8.99734 6.53621 9.08134 6.71821 9.09667 7.00288C9.0975 7.04761 9.10733 7.09172 9.12557 7.13257C9.14381 7.17343 9.17009 7.21019 9.20284 7.24067C9.23559 7.27116 9.27414 7.29473 9.31619 7.31C9.35825 7.32527 9.40294 7.33192 9.44762 7.32954C9.4923 7.32717 9.53604 7.31583 9.57624 7.29619C9.61644 7.27656 9.65228 7.24903 9.68162 7.21525C9.71095 7.18147 9.73319 7.14213 9.747 7.09957C9.76081 7.05702 9.76591 7.01211 9.762 6.96755C9.74067 6.56755 9.61534 6.21421 9.35867 5.95421C9.10067 5.69421 8.74934 5.56755 8.35067 5.54621Z" fill="white"/>
<path fill-rule="evenodd" clip-rule="evenodd" d="M4.71145 1.58953C6.83283 1.11534 9.03274 1.11534 11.1541 1.58953L11.3801 1.63953C12.0002 1.77817 12.5698 2.08602 13.0255 2.52888C13.4812 2.97175 13.8052 3.53228 13.9615 4.1482C14.4999 6.27013 14.4999 8.49294 13.9615 10.6149C13.8052 11.2308 13.4812 11.7913 13.0255 12.2342C12.5698 12.677 12.0002 12.9849 11.3801 13.1235L11.1535 13.1735C9.8248 13.4707 8.46144 13.5826 7.10212 13.5062L5.33345 15.0889C5.26677 15.1486 5.18529 15.1893 5.09751 15.2067C5.00973 15.2242 4.91887 15.2178 4.83442 15.1882C4.74996 15.1585 4.67501 15.1068 4.61738 15.0383C4.55975 14.9698 4.52155 14.8871 4.50678 14.7989L4.21412 13.0509C3.65291 12.8762 3.14586 12.5606 2.74143 12.1341C2.337 11.7076 2.04872 11.1846 1.90412 10.6149C1.36562 8.49294 1.36562 6.27013 1.90412 4.1482C2.0604 3.53228 2.38438 2.97175 2.84007 2.52888C3.29577 2.08602 3.86532 1.77817 4.48545 1.63953L4.71145 1.58953ZM10.9361 2.56487C8.9583 2.12274 6.90727 2.12274 4.92945 2.56487L4.70278 2.61553C4.26326 2.71397 3.85963 2.93231 3.5367 3.24629C3.21377 3.56027 2.98419 3.95762 2.87345 4.3942C2.37593 6.35468 2.37593 8.40839 2.87345 10.3689C2.98424 10.8055 3.21393 11.2029 3.53698 11.5169C3.86003 11.8309 4.26381 12.0492 4.70345 12.1475L4.76345 12.1609C4.86051 12.1826 4.9489 12.2327 5.0173 12.3049C5.0857 12.3771 5.13102 12.4681 5.14745 12.5662L5.34345 13.7382L6.59145 12.6215C6.64129 12.5768 6.6996 12.5426 6.76293 12.5208C6.82626 12.499 6.89332 12.4902 6.96012 12.4949C8.29282 12.5894 9.6322 12.4895 10.9361 12.1982L11.1621 12.1475C11.6018 12.0492 12.0055 11.8309 12.3286 11.5169C12.6516 11.2029 12.8813 10.8055 12.9921 10.3689C13.4895 8.40887 13.4895 6.35487 12.9921 4.3942C12.8813 3.95753 12.6516 3.56013 12.3286 3.24614C12.0055 2.93215 11.6018 2.71386 11.1621 2.61553L10.9361 2.56487Z" fill="white"/>
</svg>
